<?xml version="1.0" encoding="utf-8"?>
<!-- Generator: Adobe Illustrator 24.2.1, SVG Export Plug-In . SVG Version: 6.00 Build 0)  -->
<svg version="1.1" id="Слой_1" xmlns="http://www.w3.org/2000/svg" xmlns:xlink="http://www.w3.org/1999/xlink" x="0px" y="0px"
	 viewBox="0 0 628.9 450.5" style="enable-background:new 0 0 628.9 450.5;" xml:space="preserve">
<style type="text/css">
	.st0{fill:#FFFFFF;}
	.st1{fill:#1AA08B;}
	.st2{fill:#02BA96;}
</style>
<g>
	<path class="st0" d="M56.8,81.1H22.5V68.7h82.7v12.4H71v87.6H56.8V81.1z"/>
	<path class="st0" d="M187.7,168.7L166.1,138c-2.7,0.2-4.8,0.3-6.3,0.3h-24.7v30.4h-14.3v-100h39c13,0,23.1,3.1,30.6,9.3
		c7.4,6.2,11.1,14.7,11.1,25.6c0,7.7-1.9,14.3-5.7,19.7c-3.8,5.4-9.2,9.4-16.3,11.9l23.7,33.6H187.7z M180.1,120.3
		c4.8-3.9,7.1-9.5,7.1-16.7c0-7.2-2.4-12.8-7.1-16.6c-4.8-3.9-11.7-5.8-20.7-5.8h-24.3v45h24.3C168.4,126.1,175.3,124.2,180.1,120.3
		z"/>
	<path class="st0" d="M242.5,163.2c-8.1-4.4-14.5-10.5-19.1-18.4c-4.6-7.8-6.9-16.5-6.9-26.1c0-9.6,2.3-18.3,6.9-26.1
		c4.6-7.8,11-13.9,19.1-18.4c8.1-4.4,17.2-6.6,27.3-6.6c10,0,19,2.2,27.1,6.6c8.1,4.4,14.4,10.5,19,18.3c4.6,7.8,6.9,16.5,6.9,26.2
		s-2.3,18.5-6.9,26.2c-4.6,7.8-10.9,13.9-19,18.3c-8.1,4.4-17.1,6.6-27.1,6.6C259.7,169.8,250.6,167.6,242.5,163.2z M289.6,152.1
		c5.9-3.3,10.5-7.9,13.9-13.8c3.4-5.9,5.1-12.4,5.1-19.6c0-7.2-1.7-13.8-5.1-19.6c-3.4-5.9-8-10.5-13.9-13.8c-5.9-3.3-12.5-5-19.8-5
		c-7.3,0-14,1.7-19.9,5c-6,3.3-10.6,7.9-14,13.8c-3.4,5.9-5.1,12.4-5.1,19.6c0,7.2,1.7,13.8,5.1,19.6c3.4,5.9,8,10.5,14,13.8
		c6,3.3,12.6,5,19.9,5C277.1,157.1,283.7,155.4,289.6,152.1z"/>
	<path class="st0" d="M430.7,68.7v100H419l-60-74.6v74.6h-14.3v-100h11.7l60,74.6V68.7H430.7z"/>
	<path class="st0" d="M526.8,135.4h-61.4c0.9,6.7,3.8,12,8.8,16.1c5,4,11.2,6.1,18.6,6.1c9,0,16.3-3,21.9-9.1l7.6,8.9
		c-3.4,4-7.7,7-12.8,9.1c-5.1,2.1-10.8,3.1-17.1,3.1c-8,0-15.1-1.6-21.3-4.9c-6.2-3.3-11-7.9-14.4-13.8c-3.4-5.9-5.1-12.6-5.1-20
		c0-7.3,1.6-14,4.9-19.9c3.3-5.9,7.8-10.5,13.6-13.8c5.8-3.3,12.3-4.9,19.5-4.9c7.2,0,13.7,1.6,19.4,4.9c5.7,3.3,10.1,7.9,13.3,13.8
		c3.2,5.9,4.8,12.7,4.8,20.3C527.1,132.3,527,133.7,526.8,135.4z M473.2,109.8c-4.4,4-7,9.2-7.8,15.7H514
		c-0.8-6.4-3.4-11.6-7.8-15.6c-4.4-4-9.9-6.1-16.5-6.1C483.1,103.8,477.6,105.8,473.2,109.8z"/>
	<path class="st0" d="M592.2,168.7l-21.9-29l-22.1,29H533l29.9-38.7l-28.4-37h15.3l20.9,27.3L591.2,93h15l-28.6,37l30.1,38.7H592.2z
		"/>
</g>
<g>
	<g>
		<path class="st1" d="M178.9,216.4l-33.4,100h-15l-27.3-79.9l-27.3,79.9H60.6l-33.4-100h14.7l27,81.3L97,216.4h13.1l27.6,81.7
			l27.6-81.7H178.9z"/>
		<path class="st1" d="M214.6,310.9c-8.1-4.4-14.5-10.5-19.1-18.4c-4.6-7.8-6.9-16.5-6.9-26.1c0-9.6,2.3-18.3,6.9-26.1
			c4.6-7.8,11-13.9,19.1-18.4c8.1-4.4,17.2-6.6,27.3-6.6c10,0,19,2.2,27.1,6.6c8.1,4.4,14.4,10.5,19,18.3c4.6,7.8,6.9,16.5,6.9,26.2
			c0,9.7-2.3,18.5-6.9,26.2c-4.6,7.8-10.9,13.9-19,18.3c-8.1,4.4-17.1,6.6-27.1,6.6C231.8,317.5,222.7,315.3,214.6,310.9z
			 M261.7,299.8c5.9-3.3,10.5-7.9,13.9-13.8c3.4-5.9,5.1-12.4,5.1-19.6c0-7.2-1.7-13.8-5.1-19.6c-3.4-5.9-8-10.5-13.9-13.8
			c-5.9-3.3-12.5-5-19.8-5c-7.3,0-14,1.7-19.9,5c-6,3.3-10.6,7.9-14,13.8c-3.4,5.9-5.1,12.4-5.1,19.6c0,7.2,1.7,13.8,5.1,19.6
			c3.4,5.9,8,10.5,14,13.8c6,3.3,12.6,5,19.9,5C249.2,304.8,255.8,303.1,261.7,299.8z"/>
		<path class="st1" d="M385,316.4l-21.6-30.7c-2.7,0.2-4.8,0.3-6.3,0.3h-24.7v30.4h-14.3v-100h39c13,0,23.1,3.1,30.6,9.3
			c7.4,6.2,11.1,14.7,11.1,25.6c0,7.7-1.9,14.3-5.7,19.7c-3.8,5.4-9.2,9.4-16.3,11.9l23.7,33.6H385z M377.5,267.9
			c4.8-3.9,7.1-9.5,7.1-16.7c0-7.2-2.4-12.8-7.1-16.6c-4.8-3.9-11.7-5.8-20.7-5.8h-24.3v45h24.3
			C365.8,273.8,372.7,271.8,377.5,267.9z"/>
		<path class="st1" d="M423.5,216.4h14.3v87.6h54.1v12.4h-68.4V216.4z"/>
		<path class="st1" d="M509.7,216.4h42.1c10.6,0,20,2.1,28.1,6.3c8.2,4.2,14.5,10.1,19.1,17.6c4.5,7.6,6.8,16.3,6.8,26.1
			c0,9.8-2.3,18.5-6.8,26.1c-4.5,7.6-10.9,13.5-19.1,17.6c-8.2,4.2-17.6,6.3-28.1,6.3h-42.1V216.4z M551,303.9
			c8.1,0,15.2-1.6,21.4-4.7c6.1-3.1,10.9-7.5,14.2-13.2c3.3-5.7,5-12.2,5-19.6s-1.7-14-5-19.6c-3.3-5.7-8.1-10.1-14.2-13.2
			c-6.1-3.1-13.3-4.7-21.4-4.7h-27v75.1H551z"/>
	</g>
	<g>
		<circle class="st2" cx="241.4" cy="266.6" r="53"/>
		<path class="st0" d="M266.9,241.8l-59.4-10.9l31.2,78.6l43.5-53L266.9,241.8z M266,246.6l9.1,8.6l-24.8,4.5L266,246.6z
			 M244.8,258.9l-26.2-21.7l42.8,7.9L244.8,258.9z M242.9,262.7l-4.3,35.3l-23-57.9L242.9,262.7z M246.9,264.6l27.5-5L242.8,298
			L246.9,264.6z"/>
	</g>
</g>
<rect x="34.4" y="358" class="st0" width="563" height="2"/>
<g>
	<path class="st0" d="M46.3,386.9c1.1,0.9,1.7,2.2,1.7,3.9s-0.6,2.9-1.7,3.9c-1.1,0.9-2.7,1.4-4.6,1.4h-3.7v4.6h-2.2v-15.2h5.9
		C43.6,385.5,45.1,386,46.3,386.9z M44.7,393.3c0.7-0.6,1.1-1.4,1.1-2.5c0-1.1-0.4-1.9-1.1-2.5c-0.7-0.6-1.8-0.9-3.1-0.9h-3.7v6.8
		h3.7C42.9,394.2,44,393.9,44.7,393.3z"/>
	<path class="st0" d="M65.6,400.1c-0.9-0.5-1.6-1.2-2.1-2.1c-0.5-0.9-0.8-1.9-0.8-3s0.3-2.1,0.8-3s1.2-1.6,2.1-2.1
		c0.9-0.5,1.9-0.7,3.1-0.7s2.2,0.2,3.1,0.7c0.9,0.5,1.6,1.2,2.1,2.1c0.5,0.9,0.8,1.9,0.8,3s-0.3,2.1-0.8,3c-0.5,0.9-1.2,1.6-2.1,2.1
		c-0.9,0.5-1.9,0.8-3.1,0.8S66.5,400.6,65.6,400.1z M70.7,398.5c0.6-0.3,1-0.8,1.4-1.4c0.3-0.6,0.5-1.3,0.5-2.1
		c0-0.8-0.2-1.5-0.5-2.1c-0.3-0.6-0.8-1.1-1.4-1.4c-0.6-0.3-1.2-0.5-2-0.5s-1.4,0.2-2,0.5c-0.6,0.3-1,0.8-1.4,1.4
		c-0.3,0.6-0.5,1.3-0.5,2.1c0,0.8,0.2,1.5,0.5,2.1s0.8,1.1,1.4,1.4c0.6,0.3,1.2,0.5,2,0.5S70.1,398.8,70.7,398.5z"/>
	<path class="st0" d="M107.6,389.2l-4.3,11.5h-2L98,392l-3.4,8.7h-2l-4.3-11.5h2l3.3,9.1l3.5-9.1h1.8l3.4,9.2l3.4-9.2H107.6z"/>
	<path class="st0" d="M132.7,395.6h-9.3c0.1,1,0.6,1.8,1.3,2.4c0.8,0.6,1.7,0.9,2.8,0.9c1.4,0,2.5-0.5,3.3-1.4l1.1,1.3
		c-0.5,0.6-1.2,1.1-1.9,1.4c-0.8,0.3-1.6,0.5-2.6,0.5c-1.2,0-2.3-0.2-3.2-0.7c-0.9-0.5-1.7-1.2-2.2-2.1c-0.5-0.9-0.8-1.9-0.8-3
		c0-1.1,0.2-2.1,0.7-3c0.5-0.9,1.2-1.6,2.1-2.1c0.9-0.5,1.9-0.7,3-0.7c1.1,0,2.1,0.2,2.9,0.7c0.9,0.5,1.5,1.2,2,2.1
		c0.5,0.9,0.7,1.9,0.7,3.1C132.7,395.2,132.7,395.4,132.7,395.6z M124.5,391.8c-0.7,0.6-1.1,1.4-1.2,2.4h7.4c-0.1-1-0.5-1.8-1.2-2.4
		c-0.7-0.6-1.5-0.9-2.5-0.9C126,390.9,125.2,391.2,124.5,391.8z"/>
	<path class="st0" d="M152.2,389.6c0.7-0.3,1.6-0.5,2.6-0.5v2c-0.1,0-0.3,0-0.5,0c-1.1,0-2,0.3-2.7,1c-0.6,0.7-1,1.6-1,2.9v5.7h-2.1
		v-11.5h2v1.9C150.9,390.5,151.5,390,152.2,389.6z"/>
	<path class="st0" d="M180.5,395.6h-9.3c0.1,1,0.6,1.8,1.3,2.4c0.8,0.6,1.7,0.9,2.8,0.9c1.4,0,2.5-0.5,3.3-1.4l1.1,1.3
		c-0.5,0.6-1.2,1.1-1.9,1.4c-0.8,0.3-1.6,0.5-2.6,0.5c-1.2,0-2.3-0.2-3.2-0.7c-0.9-0.5-1.7-1.2-2.2-2.1c-0.5-0.9-0.8-1.9-0.8-3
		c0-1.1,0.2-2.1,0.7-3c0.5-0.9,1.2-1.6,2.1-2.1c0.9-0.5,1.9-0.7,3-0.7c1.1,0,2.1,0.2,2.9,0.7c0.9,0.5,1.5,1.2,2,2.1
		c0.5,0.9,0.7,1.9,0.7,3.1C180.6,395.2,180.6,395.4,180.5,395.6z M172.4,391.8c-0.7,0.6-1.1,1.4-1.2,2.4h7.4c-0.1-1-0.5-1.8-1.2-2.4
		c-0.7-0.6-1.5-0.9-2.5-0.9C173.9,390.9,173.1,391.2,172.4,391.8z"/>
	<path class="st0" d="M207.3,384.6v16.1h-2v-1.8c-0.5,0.6-1,1.1-1.8,1.5c-0.7,0.3-1.5,0.5-2.3,0.5c-1.1,0-2.1-0.2-3-0.7
		c-0.9-0.5-1.6-1.2-2.1-2.1c-0.5-0.9-0.7-1.9-0.7-3.1s0.2-2.2,0.7-3.1c0.5-0.9,1.2-1.6,2.1-2.1s1.9-0.7,3-0.7c0.8,0,1.6,0.2,2.3,0.5
		c0.7,0.3,1.3,0.8,1.7,1.4v-6.3H207.3z M203.3,398.5c0.6-0.3,1.1-0.8,1.4-1.4c0.3-0.6,0.5-1.3,0.5-2.1c0-0.8-0.2-1.5-0.5-2.1
		c-0.3-0.6-0.8-1.1-1.4-1.4c-0.6-0.3-1.2-0.5-2-0.5c-0.7,0-1.4,0.2-2,0.5c-0.6,0.3-1,0.8-1.4,1.4c-0.3,0.6-0.5,1.3-0.5,2.1
		c0,0.8,0.2,1.5,0.5,2.1c0.3,0.6,0.8,1.1,1.4,1.4c0.6,0.3,1.2,0.5,2,0.5C202.1,399,202.7,398.8,203.3,398.5z"/>
	<path class="st0" d="M252.1,389.8c0.9,0.5,1.6,1.2,2.1,2.1c0.5,0.9,0.7,1.9,0.7,3.1s-0.2,2.2-0.7,3.1c-0.5,0.9-1.2,1.6-2.1,2.1
		c-0.9,0.5-1.9,0.7-3,0.7c-0.9,0-1.6-0.2-2.3-0.5c-0.7-0.3-1.3-0.8-1.8-1.5v1.8h-2v-16.1h2.1v6.3c0.5-0.6,1-1.1,1.7-1.4
		c0.7-0.3,1.5-0.5,2.3-0.5C250.2,389.1,251.2,389.3,252.1,389.8z M250.9,398.5c0.6-0.3,1-0.8,1.4-1.4c0.3-0.6,0.5-1.3,0.5-2.1
		c0-0.8-0.2-1.5-0.5-2.1c-0.3-0.6-0.8-1.1-1.4-1.4c-0.6-0.3-1.2-0.5-2-0.5c-0.7,0-1.4,0.2-2,0.5c-0.6,0.3-1.1,0.8-1.4,1.4
		c-0.3,0.6-0.5,1.3-0.5,2.1c0,0.8,0.2,1.5,0.5,2.1c0.3,0.6,0.8,1.1,1.4,1.4c0.6,0.3,1.2,0.5,2,0.5
		C249.7,399,250.3,398.8,250.9,398.5z"/>
	<path class="st0" d="M280.6,389.2l-5.6,12.6c-0.5,1.2-1.1,2-1.7,2.5c-0.7,0.5-1.4,0.7-2.4,0.7c-0.6,0-1.1-0.1-1.6-0.3
		c-0.5-0.2-1-0.4-1.3-0.8l0.9-1.6c0.6,0.6,1.3,0.8,2.1,0.8c0.5,0,0.9-0.1,1.3-0.4c0.3-0.3,0.6-0.7,0.9-1.4l0.4-0.8l-5.1-11.5h2.2
		l4,9.2l4-9.2H280.6z"/>
	<path class="st0" d="M317.7,387.4h-5.2v-1.9H325v1.9h-5.2v13.3h-2.1V387.4z"/>
	<path class="st0" d="M350.5,400.7l-3.3-4.7c-0.4,0-0.7,0-1,0h-3.7v4.6h-2.2v-15.2h5.9c2,0,3.5,0.5,4.6,1.4c1.1,0.9,1.7,2.2,1.7,3.9
		c0,1.2-0.3,2.2-0.9,3c-0.6,0.8-1.4,1.4-2.5,1.8l3.6,5.1H350.5z M349.4,393.3c0.7-0.6,1.1-1.4,1.1-2.5c0-1.1-0.4-1.9-1.1-2.5
		c-0.7-0.6-1.8-0.9-3.1-0.9h-3.7v6.8h3.7C347.6,394.2,348.7,393.9,349.4,393.3z"/>
	<path class="st0" d="M371.8,399.8c-1.2-0.7-2.2-1.6-2.9-2.8c-0.7-1.2-1.1-2.5-1.1-4c0-1.5,0.3-2.8,1.1-4c0.7-1.2,1.7-2.1,2.9-2.8
		c1.2-0.7,2.6-1,4.1-1c1.5,0,2.9,0.3,4.1,1c1.2,0.7,2.2,1.6,2.9,2.8c0.7,1.2,1,2.5,1,4c0,1.5-0.3,2.8-1,4c-0.7,1.2-1.7,2.1-2.9,2.8
		c-1.2,0.7-2.6,1-4.1,1C374.4,400.9,373.1,400.5,371.8,399.8z M379,398.2c0.9-0.5,1.6-1.2,2.1-2.1c0.5-0.9,0.8-1.9,0.8-3
		c0-1.1-0.3-2.1-0.8-3c-0.5-0.9-1.2-1.6-2.1-2.1c-0.9-0.5-1.9-0.8-3-0.8c-1.1,0-2.1,0.3-3,0.8c-0.9,0.5-1.6,1.2-2.1,2.1
		c-0.5,0.9-0.8,1.9-0.8,3c0,1.1,0.3,2.1,0.8,3c0.5,0.9,1.2,1.6,2.1,2.1c0.9,0.5,1.9,0.8,3,0.8C377.1,398.9,378.1,398.7,379,398.2z"
		/>
	<path class="st0" d="M413.4,385.5v15.2h-1.8l-9.1-11.3v11.3h-2.2v-15.2h1.8l9.1,11.3v-11.3H413.4z"/>
	<path class="st0" d="M440.9,395.6h-9.3c0.1,1,0.6,1.8,1.3,2.4c0.8,0.6,1.7,0.9,2.8,0.9c1.4,0,2.5-0.5,3.3-1.4l1.1,1.3
		c-0.5,0.6-1.2,1.1-1.9,1.4c-0.8,0.3-1.6,0.5-2.6,0.5c-1.2,0-2.3-0.2-3.2-0.7c-0.9-0.5-1.7-1.2-2.2-2.1c-0.5-0.9-0.8-1.9-0.8-3
		c0-1.1,0.2-2.1,0.7-3c0.5-0.9,1.2-1.6,2.1-2.1c0.9-0.5,1.9-0.7,3-0.7c1.1,0,2.1,0.2,2.9,0.7c0.9,0.5,1.5,1.2,2,2.1
		c0.5,0.9,0.7,1.9,0.7,3.1C441,395.2,440.9,395.4,440.9,395.6z M432.8,391.8c-0.7,0.6-1.1,1.4-1.2,2.4h7.4c-0.1-1-0.5-1.8-1.2-2.4
		c-0.7-0.6-1.5-0.9-2.5-0.9C434.3,390.9,433.5,391.2,432.8,391.8z"/>
	<path class="st0" d="M463.8,400.7l-3.3-4.4l-3.4,4.4h-2.3l4.5-5.9l-4.3-5.6h2.3l3.2,4.1l3.1-4.1h2.3l-4.3,5.6l4.6,5.9H463.8z"/>
	<path class="st0" d="M503.6,387.4h-5.2v-1.9h12.5v1.9h-5.2v13.3h-2.1V387.4z"/>
	<path class="st0" d="M535.1,395.6h-9.3c0.1,1,0.6,1.8,1.3,2.4c0.8,0.6,1.7,0.9,2.8,0.9c1.4,0,2.5-0.5,3.3-1.4l1.1,1.3
		c-0.5,0.6-1.2,1.1-1.9,1.4c-0.8,0.3-1.6,0.5-2.6,0.5c-1.2,0-2.3-0.2-3.2-0.7c-0.9-0.5-1.7-1.2-2.2-2.1c-0.5-0.9-0.8-1.9-0.8-3
		c0-1.1,0.2-2.1,0.7-3c0.5-0.9,1.2-1.6,2.1-2.1c0.9-0.5,1.9-0.7,3-0.7c1.1,0,2.1,0.2,2.9,0.7c0.9,0.5,1.5,1.2,2,2.1
		c0.5,0.9,0.7,1.9,0.7,3.1C535.2,395.2,535.2,395.4,535.1,395.6z M527,391.8c-0.7,0.6-1.1,1.4-1.2,2.4h7.4c-0.1-1-0.5-1.8-1.2-2.4
		c-0.7-0.6-1.5-0.9-2.5-0.9C528.5,390.9,527.7,391.2,527,391.8z"/>
	<path class="st0" d="M558.5,390.3c0.8,0.8,1.3,1.9,1.3,3.5v6.9h-2v-1.5c-0.3,0.5-0.8,0.9-1.5,1.2c-0.6,0.3-1.4,0.4-2.3,0.4
		c-1.3,0-2.3-0.3-3.1-0.9c-0.8-0.6-1.2-1.4-1.2-2.4c0-1,0.4-1.8,1.1-2.4c0.7-0.6,1.9-0.9,3.5-0.9h3.3v-0.4c0-0.9-0.3-1.6-0.8-2.1
		c-0.5-0.5-1.3-0.7-2.3-0.7c-0.7,0-1.3,0.1-2,0.3c-0.6,0.2-1.2,0.5-1.6,0.9l-0.9-1.6c0.6-0.5,1.3-0.8,2.1-1.1
		c0.8-0.3,1.7-0.4,2.6-0.4C556.5,389.1,557.7,389.5,558.5,390.3z M556.5,398.7c0.6-0.4,1-0.9,1.3-1.5v-1.6h-3.2
		c-1.8,0-2.6,0.6-2.6,1.8c0,0.6,0.2,1,0.7,1.4c0.4,0.3,1.1,0.5,1.9,0.5C555.2,399.2,555.9,399,556.5,398.7z"/>
	<path class="st0" d="M594.5,390.4c0.8,0.8,1.3,2.1,1.3,3.7v6.6h-2.1v-6.4c0-1.1-0.3-1.9-0.8-2.5c-0.5-0.6-1.2-0.8-2.2-0.8
		c-1.1,0-1.9,0.3-2.5,1c-0.6,0.7-0.9,1.6-0.9,2.8v5.9h-2.1v-6.4c0-1.1-0.3-1.9-0.8-2.5c-0.5-0.6-1.2-0.8-2.2-0.8
		c-1.1,0-1.9,0.3-2.5,1c-0.6,0.7-0.9,1.6-0.9,2.8v5.9h-2.1v-11.5h2v1.7c0.4-0.6,1-1,1.6-1.4c0.7-0.3,1.5-0.5,2.3-0.5
		c0.9,0,1.7,0.2,2.4,0.5c0.7,0.4,1.2,0.9,1.6,1.6c0.4-0.7,1-1.2,1.8-1.6c0.8-0.4,1.6-0.6,2.6-0.6
		C592.5,389.1,593.6,389.5,594.5,390.4z"/>
</g>
</svg>
